<svg xmlns="http://www.w3.org/2000/svg" width="26" height="30" viewBox="0 0 26 30" fill="none">
  <path d="M13.0007 16.0776C14.6792 16.0776 16.3313 16.1925 17.9469 16.4179C19.4631 16.6275 20.6752 17.8049 20.6752 19.3082C20.6752 24.6609 17.2393 29 12.9993 29C8.75924 29 5.32482 24.6609 5.32482 19.3082C5.32482 17.8063 6.53835 16.6275 8.05306 16.4179C9.69215 16.1909 11.3454 16.0772 13.0007 16.0776ZM13.0007 16.0776C17.2159 16.0776 21.2571 16.807 25 18.1452C24.8235 21.1048 24.2573 24.0295 23.3157 26.8463M13.0007 16.0776C8.78556 16.0776 4.74438 16.807 1 18.1452C1.18276 21.1661 1.76028 24.0837 2.68578 26.8463M13.0007 16.0776C13.4456 16.0777 13.8858 15.9891 14.2949 15.8174C14.7039 15.6456 15.0732 15.3941 15.3804 15.0782C15.6877 14.7622 15.9264 14.3884 16.0824 13.9792C16.2383 13.57 16.308 13.1341 16.2875 12.6977M13.0007 16.0776C12.5559 16.0777 12.1156 15.9891 11.7066 15.8174C11.2976 15.6456 10.9283 15.3941 10.621 15.0782C10.3138 14.7622 10.075 14.3884 9.91911 13.9792C9.7632 13.57 9.69342 13.1341 9.71398 12.6977M16.2875 12.6977C16.2484 11.8675 15.885 11.0841 15.2729 10.5102C14.6607 9.93635 13.847 9.61623 13.0007 9.61638M16.2875 12.6977C18.884 12.4615 21.447 11.9404 23.9254 11.1441C23.845 9.52592 23.652 7.93646 23.3522 6.38578M9.71398 12.6977C9.7531 11.8675 10.1165 11.0841 10.7286 10.5102C11.3407 9.93635 12.1545 9.61623 13.0007 9.61638M9.71398 12.6977C7.07201 12.4564 4.5163 11.9281 2.07755 11.1441C2.15617 9.54687 2.34767 7.95693 2.65069 6.38578M13.0007 9.61638C14.4555 9.61638 15.8825 9.50151 17.2729 9.27752C17.8621 9.18276 18.3549 8.7635 18.4353 8.18343C18.5851 7.07324 18.3813 5.94474 17.8519 4.95282M13.0007 9.61638C11.546 9.61638 10.1204 9.50151 8.72854 9.27752C8.14079 9.18276 7.6466 8.7635 7.56619 8.18343C7.4116 7.07159 7.61615 5.94014 8.15102 4.94852M8.15102 4.94852C7.52825 4.54124 6.9608 4.05923 6.46232 3.51126C6.56467 2.60669 6.85708 1.75668 7.30155 1.00287M8.15102 4.94852C8.61646 4.08119 9.31421 3.35657 10.169 2.85008C11.0238 2.3436 12.0031 2.07592 13.0015 2.07592C13.9998 2.07592 14.9792 2.3436 15.8339 2.85008C16.6887 3.35657 17.3865 4.08263 17.8519 4.94995C18.4762 4.54361 19.0435 4.05974 19.5406 3.51556C19.4414 2.62879 19.1551 1.77205 18.6999 1" stroke="url(#paint0_linear_138_597)" stroke-width="1.5" stroke-linecap="round" stroke-linejoin="round"/>
  <defs>
    <linearGradient id="paint0_linear_138_597" x1="1" y1="15" x2="25" y2="15" gradientUnits="userSpaceOnUse">
      <stop stop-color="#42D2F1"/>
      <stop offset="1" stop-color="#B248DD"/>
    </linearGradient>
  </defs>
</svg>