<svg
                xmlns="http://www.w3.org/2000/svg"
                width="20"
                height="32"
                viewBox="0 0 20 32"
                fill="none"
              >
                <path
                  fill-rule="evenodd"
                  clip-rule="evenodd"
                  d="M14.7399 24C14.7399 27.2653 11.9075 29.932 8.43931 29.932C5.0289 29.932 2.19653 27.2653 2.19653 24C3.00578 24 3.75723 24 4.56647 24C3.58381 22.3129 2.19653 20.4626 0 18.9388V24C0 28.4082 3.81503 32 8.43931 32C13.1214 32 16.9364 28.4082 16.9364 24V7.78231C18.7283 7.29252 20 5.98639 20 3.97279C20 1.95918 18.1503 0 15.8382 0C13.4682 0 11.6185 1.95918 11.6185 3.97279C11.6185 5.98639 12.948 7.29252 14.7399 7.78231C14.7399 13.4422 14.7399 18.3401 14.7399 24ZM15.8382 2.06803C14.7399 2.06803 13.815 2.93878 13.815 3.97279C13.815 5.0068 14.7399 5.82313 15.8382 5.82313C16.9364 5.82313 17.8035 5.0068 17.8035 3.97279C17.8035 2.93878 16.9364 2.06803 15.8382 2.06803Z"
                  fill="url(#paint0_linear_144_937)"
                />
                <defs>
                  <linearGradient
                    id="paint0_linear_144_937"
                    x1="0"
                    y1="16"
                    x2="20"
                    y2="16"
                    gradientUnits="userSpaceOnUse"
                  >
                    <stop stop-color="#42D2F1" />
                    <stop offset="1" stop-color="#B248DD" />
                  </linearGradient>
                </defs>
              </svg>