<svg width="67" height="66" viewBox="0 0 67 66" fill="none" xmlns="http://www.w3.org/2000/svg">
<path d="M14.6026 3.38642V6.30582H14.6068L14.606 9.44032H7.0029V9.44992H5.7319L1.5775 18.1847H14.6071V21.6656H14.6027L14.6071 51.1482C14.6071 55.2201 11.3062 58.521 7.2344 58.521H4.9282L0 65.7705H42.6108L37.5475 58.521H31.9731C27.9012 58.521 24.6003 55.2201 24.6003 51.1482L24.596 25.3583C24.7007 21.4009 27.924 18.2206 31.8982 18.1847H59.7417L54.852 9.44992H33.7957V9.44032L24.5923 9.44022L24.593 6.30582H24.5958V0.0178223L14.6026 3.38642Z" fill="#0C0C4F"/>
<path d="M20.0756 1.5451V58.243C20.1667 56.6576 21.2411 52.5488 24.5584 50.7961V32.5599L24.6639 32.5932V25.5243C24.6639 21.4525 27.9648 18.1516 32.0366 18.1516H59.7748L57.1444 13.559H30.1019C26.3222 13.559 24.5584 16.2494 24.5584 16.2494L24.6371 0L20.0756 1.5451Z" fill="#0C0C4F"/>
<path d="M3.8156 13.4861L1.5231 18.2017H14.6183V13.4861H3.8156Z" fill="#0C0C4F"/>
<mask id="mask0_2005_40" style="mask-type:luminance" maskUnits="userSpaceOnUse" x="36" y="24" width="31" height="31">
<path d="M66.1936 24.6934H36.1936V54.6934H66.1936V24.6934Z" fill="white"/>
</mask>
<g mask="url(#mask0_2005_40)">
<path fill-rule="evenodd" clip-rule="evenodd" d="M36.1936 39.7875C36.1936 48.0197 42.9092 54.6929 51.1934 54.6929C59.4776 54.6929 66.1936 48.0197 66.1936 39.7875C66.1936 31.5554 59.4776 24.8821 51.1934 24.8821C42.9092 24.8821 36.1936 31.5554 36.1936 39.7875Z" fill="#0C0C4F"/>
<path fill-rule="evenodd" clip-rule="evenodd" d="M44.5772 36.2751L44.9474 35.1384C45.0227 34.9072 45.2063 34.7272 45.4398 34.6563L46.5894 34.305C46.7485 34.2567 46.7498 34.0336 46.592 33.9828L45.4476 33.6148C45.2154 33.5401 45.0343 33.3576 44.9625 33.1255L44.6094 31.9832C44.5608 31.8255 44.3363 31.8238 44.2851 31.9811L43.9149 33.1178C43.8396 33.3486 43.656 33.5285 43.4225 33.5999L42.2729 33.9508C42.1138 33.9994 42.1121 34.2221 42.2703 34.273L43.4147 34.6409C43.6469 34.7157 43.828 34.8986 43.8998 35.1307L44.2529 36.2725C44.3015 36.4307 44.526 36.4324 44.5772 36.2751Z" fill="#FAFAFA"/>
<path fill-rule="evenodd" clip-rule="evenodd" d="M62.7474 35.6137C62.2736 35.0871 61.534 34.7906 60.815 34.669C60.0902 34.5522 59.3301 34.5631 58.6147 34.6894C57.1669 34.9327 55.8516 35.5284 54.7044 36.2633C54.1087 36.624 53.6007 37.0413 53.0744 37.4663C52.8207 37.6813 52.5896 37.9102 52.3488 38.1358L51.6908 38.7863C50.9759 39.5289 50.2712 40.2053 49.5894 40.7659C48.9049 41.3239 48.2649 41.7478 47.6342 42.0438C47.0038 42.3412 46.3294 42.5162 45.4503 42.5442C44.5789 42.5748 43.548 42.4185 42.4452 42.1605C41.3366 41.9037 40.1723 41.5377 38.8713 41.2227C39.3253 42.4741 40.0089 43.58 40.8865 44.5909C41.7745 45.5843 42.8832 46.4898 44.3076 47.0852C45.7114 47.6939 47.4755 47.9122 49.125 47.5826C50.7789 47.2664 52.2302 46.5058 53.4034 45.6264C54.5796 44.7379 55.5311 43.7256 56.3333 42.6735C56.5547 42.3828 56.6719 42.22 56.8322 41.9928L57.2751 41.3409C57.5829 40.9376 57.8631 40.4784 58.1677 40.0788C58.7651 39.242 59.354 38.4061 60.0383 37.636C60.3828 37.2455 60.746 36.8719 61.1747 36.5128C61.3886 36.3376 61.6196 36.1661 61.8756 36.0116C62.1353 35.845 62.4097 35.7145 62.7474 35.6137Z" fill="url(#paint0_linear_2005_40)"/>
<path fill-rule="evenodd" clip-rule="evenodd" d="M62.7474 35.6143C62.2384 34.3378 61.2919 33.2632 60.0215 32.4702C58.7588 31.686 57.0051 31.2857 55.2672 31.6269C54.4088 31.7919 53.577 32.1096 52.8471 32.5326C52.1205 32.9539 51.4694 33.4611 50.9057 34.0053C50.6243 34.2783 50.3688 34.563 50.1151 34.8493L49.4574 35.6826L48.4416 37.0239C47.1466 38.7496 45.7521 40.7721 43.4636 41.3713C41.217 41.9596 40.2425 41.4387 38.8713 41.2234C39.1221 41.8666 39.4326 42.4913 39.8536 43.0408C40.2668 43.6015 40.7549 44.1281 41.3616 44.5794C41.6683 44.7962 41.992 45.0102 42.3515 45.1917C42.7095 45.367 43.0955 45.5213 43.5074 45.6375C44.327 45.8607 45.2495 45.9388 46.1429 45.8188C47.0366 45.7003 47.8908 45.4188 48.6375 45.0451C49.3897 44.6749 50.045 44.2239 50.63 43.7481C51.7931 42.7882 52.6978 41.7277 53.462 40.6557C53.8463 40.1197 54.1953 39.5737 54.518 39.0275L54.8978 38.3772C55.0139 38.1871 55.1313 37.9958 55.2505 37.8177C55.7318 37.102 56.2025 36.5282 56.7743 36.0975C57.338 35.6556 58.1231 35.3292 59.1722 35.2533C60.2168 35.1766 61.4229 35.3184 62.7474 35.6143Z" fill="#FAFAFA"/>
<path fill-rule="evenodd" clip-rule="evenodd" d="M57.0952 46.2208C57.0952 47.1584 57.8606 47.9189 58.804 47.9189C59.7477 47.9189 60.512 47.1584 60.512 46.2208C60.512 45.2831 59.7477 44.5227 58.804 44.5227C57.8606 44.5227 57.0952 45.2831 57.0952 46.2208Z" fill="url(#paint1_linear_2005_40)"/>
</g>
<defs>
<linearGradient id="paint0_linear_2005_40" x1="62.6199" y1="35.1657" x2="41.6682" y2="46.8809" gradientUnits="userSpaceOnUse">
<stop stop-color="#EC796B"/>
<stop offset="1" stop-color="#E175B1"/>
</linearGradient>
<linearGradient id="paint1_linear_2005_40" x1="60.5108" y1="45.0295" x2="57.0934" y2="45.3932" gradientUnits="userSpaceOnUse">
<stop stop-color="#EC796B"/>
<stop offset="1" stop-color="#E175B1"/>
</linearGradient>
</defs>
</svg>


