<svg width="525" height="282" viewBox="0 0 525 282" fill="none" xmlns="http://www.w3.org/2000/svg">
<path d="M136.625 162.692C133.375 162.692 130.51 162.192 128.031 161.192C125.573 160.171 123.615 158.723 122.156 156.848C120.719 154.973 119.906 152.754 119.719 150.192L119.688 149.754H125.312L125.375 150.192C125.604 151.692 126.219 152.994 127.219 154.098C128.219 155.181 129.542 156.025 131.188 156.629C132.854 157.212 134.771 157.504 136.938 157.504C139.104 157.504 140.979 157.202 142.562 156.598C144.146 155.973 145.365 155.087 146.219 153.942C147.094 152.796 147.531 151.452 147.531 149.91V149.879C147.531 147.9 146.844 146.317 145.469 145.129C144.094 143.942 141.854 143.004 138.75 142.317L133.75 141.223C129.354 140.244 126.094 138.744 123.969 136.723C121.865 134.681 120.812 132.015 120.812 128.723V128.692C120.833 126.212 121.521 124.035 122.875 122.16C124.229 120.265 126.094 118.785 128.469 117.723C130.865 116.64 133.604 116.098 136.688 116.098C139.625 116.098 142.25 116.629 144.562 117.692C146.875 118.733 148.719 120.192 150.094 122.067C151.49 123.942 152.271 126.108 152.438 128.567L152.469 129.035H146.844L146.781 128.598C146.552 127.056 145.99 125.744 145.094 124.66C144.198 123.577 143.021 122.744 141.562 122.16C140.125 121.577 138.448 121.285 136.531 121.285C134.531 121.285 132.781 121.587 131.281 122.192C129.781 122.796 128.615 123.64 127.781 124.723C126.969 125.806 126.562 127.077 126.562 128.535V128.567C126.562 130.4 127.26 131.91 128.656 133.098C130.052 134.285 132.219 135.202 135.156 135.848L140.156 136.942C143.24 137.608 145.74 138.494 147.656 139.598C149.594 140.702 151.01 142.077 151.906 143.723C152.823 145.348 153.281 147.306 153.281 149.598V149.629C153.281 152.296 152.604 154.608 151.25 156.567C149.917 158.525 148 160.035 145.5 161.098C143.021 162.16 140.062 162.692 136.625 162.692ZM170.031 161.942V121.91H155.812V116.848H189.875V121.91H175.656V161.942H170.031ZM315.156 146.692V138.973H315.812L334.938 116.848H342L324.062 137.192H323.781L315.156 146.692ZM310 161.942V116.848H315.625V161.942H310ZM336.469 161.942L320.125 140.442L324.094 136.442L343.656 161.942H336.469ZM348.438 161.942V116.848H353.906L383.5 159.317L376.375 152.442H378.875V116.848H384.438V161.942H378.969L349.375 119.473L356.5 126.348H354V161.942H348.438ZM393.188 161.942V116.848H421.125V121.91H398.812V136.379H419.969V141.379H398.812V156.879H421.125V161.942H393.188ZM439.969 161.942V121.91H425.75V116.848H459.812V121.91H445.594V161.942H439.969Z" fill="black"/>
<path d="M192.312 161.942L212.531 116.848H225.688V127.223H221.156L206.75 161.942H192.312ZM203.469 152.41L207.188 143.473H234.969L238.656 152.41H203.469ZM235.812 161.942L221.406 127.223V116.848H230.031L250.25 161.942H235.812ZM254.625 161.942V116.848H283.719C287.865 116.848 291.354 117.431 294.188 118.598C297.021 119.765 299.156 121.452 300.594 123.66C302.031 125.848 302.75 128.504 302.75 131.629V131.692C302.75 134.9 301.938 137.65 300.312 139.942C298.708 142.233 296.396 143.89 293.375 144.91L304.531 161.942H289.156L279.938 147.129C279.833 147.129 279.729 147.129 279.625 147.129C279.521 147.129 279.417 147.129 279.312 147.129H268.312V161.942H254.625ZM268.312 138.129H282.406C284.49 138.129 286.115 137.619 287.281 136.598C288.448 135.556 289.031 134.119 289.031 132.285V132.223C289.031 130.431 288.427 129.015 287.219 127.973C286.031 126.931 284.406 126.41 282.344 126.41H268.312V138.129Z" fill="#794BFC"/>
<path d="M100.406 212.848C95.2604 212.848 90.8333 212.306 87.125 211.223C83.4375 210.119 80.5208 208.504 78.375 206.379C76.25 204.254 74.9688 201.65 74.5312 198.567L74.4688 198.16H87.5938L87.6562 198.41C87.9271 199.473 88.6042 200.379 89.6875 201.129C90.7708 201.858 92.2292 202.421 94.0625 202.817C95.8958 203.192 98.0938 203.379 100.656 203.379C102.781 203.379 104.594 203.192 106.094 202.817C107.615 202.421 108.781 201.869 109.594 201.16C110.406 200.431 110.812 199.577 110.812 198.598V198.567C110.812 197.337 110.281 196.431 109.219 195.848C108.177 195.244 106.344 194.796 103.719 194.504L92.4062 193.66C86.7604 193.119 82.5312 191.775 79.7188 189.629C76.9271 187.462 75.5312 184.462 75.5312 180.629V180.598C75.5312 177.535 76.4688 174.91 78.3438 172.723C80.2188 170.535 82.8854 168.858 86.3438 167.692C89.8229 166.525 93.9583 165.942 98.75 165.942C103.604 165.942 107.771 166.494 111.25 167.598C114.75 168.681 117.51 170.265 119.531 172.348C121.552 174.41 122.781 176.91 123.219 179.848L123.312 180.41H110.188L110.125 180.129C109.854 179.087 109.25 178.223 108.312 177.535C107.396 176.827 106.146 176.296 104.562 175.942C103 175.587 101.115 175.41 98.9062 175.41C96.7604 175.41 94.9583 175.587 93.5 175.942C92.0625 176.296 90.9688 176.806 90.2188 177.473C89.4896 178.119 89.125 178.89 89.125 179.785V179.817C89.125 180.983 89.6771 181.879 90.7812 182.504C91.9062 183.108 93.75 183.535 96.3125 183.785L107.812 184.66C111.562 185.035 114.667 185.744 117.125 186.785C119.583 187.827 121.406 189.244 122.594 191.035C123.802 192.827 124.406 195.015 124.406 197.598V197.629C124.406 200.796 123.458 203.525 121.562 205.817C119.667 208.087 116.927 209.827 113.344 211.035C109.781 212.244 105.469 212.848 100.406 212.848ZM136.719 199.192V189.598H155.719C158.135 189.598 159.99 189.046 161.281 187.942C162.573 186.837 163.219 185.244 163.219 183.16V183.098C163.219 181.015 162.573 179.431 161.281 178.348C159.99 177.244 158.135 176.692 155.719 176.692H136.719V166.848H158.031C161.99 166.848 165.385 167.525 168.219 168.879C171.052 170.212 173.229 172.087 174.75 174.504C176.271 176.921 177.031 179.744 177.031 182.973V183.035C177.031 186.202 176.271 189.004 174.75 191.442C173.229 193.858 171.052 195.754 168.219 197.129C165.385 198.504 161.99 199.192 158.031 199.192H136.719ZM129.875 211.942V166.848H143.531V211.942H129.875ZM182.25 211.942V166.848H224.469V176.66H195.938V184.754H222.5V193.629H195.938V202.129H224.469V211.942H182.25Z" fill="#794BFC"/>
<path d="M231.938 211.942V166.848H259.875V171.91H237.562V186.379H258.719V191.379H237.562V206.879H259.875V211.942H231.938ZM267.312 211.942V166.848H282.469C286.927 166.848 290.74 167.744 293.906 169.535C297.073 171.306 299.5 173.869 301.188 177.223C302.896 180.556 303.75 184.587 303.75 189.317V189.379C303.75 194.108 302.906 198.16 301.219 201.535C299.531 204.91 297.104 207.494 293.938 209.285C290.771 211.056 286.948 211.942 282.469 211.942H267.312ZM272.938 206.879H282.094C285.51 206.879 288.396 206.202 290.75 204.848C293.125 203.494 294.927 201.525 296.156 198.942C297.385 196.337 298 193.171 298 189.442V189.379C298 185.629 297.385 182.452 296.156 179.848C294.927 177.244 293.125 175.275 290.75 173.942C288.396 172.587 285.51 171.91 282.094 171.91H272.938V206.879ZM310.75 211.942V166.848H327.656C330.552 166.848 333.073 167.41 335.219 168.535C337.385 169.64 339.062 171.202 340.25 173.223C341.438 175.223 342.031 177.577 342.031 180.285V180.348C342.031 183.473 341.219 186.181 339.594 188.473C337.99 190.744 335.781 192.327 332.969 193.223L343.406 211.942H336.812L327.156 194.098C327.094 194.098 327.031 194.098 326.969 194.098C326.927 194.098 326.875 194.098 326.812 194.098H316.375V211.942H310.75ZM316.375 189.129H327.156C330.052 189.129 332.281 188.379 333.844 186.879C335.427 185.379 336.219 183.244 336.219 180.473V180.41C336.219 177.723 335.385 175.629 333.719 174.129C332.073 172.608 329.802 171.848 326.906 171.848H316.375V189.129ZM367.062 212.692C363.333 212.692 360.125 211.994 357.438 210.598C354.771 209.202 352.719 207.265 351.281 204.785C349.844 202.285 349.125 199.4 349.125 196.129V166.848H354.75V195.754C354.75 198.067 355.229 200.108 356.188 201.879C357.167 203.629 358.573 205.004 360.406 206.004C362.24 207.004 364.458 207.504 367.062 207.504C369.667 207.504 371.875 207.004 373.688 206.004C375.521 205.004 376.917 203.629 377.875 201.879C378.833 200.108 379.312 198.067 379.312 195.754V166.848H384.938V196.129C384.938 199.4 384.219 202.285 382.781 204.785C381.365 207.265 379.323 209.202 376.656 210.598C373.99 211.994 370.792 212.692 367.062 212.692ZM393.688 211.942V166.848H399.156L428.75 209.317L421.625 202.442H424.125V166.848H429.688V211.942H424.219L394.625 169.473L401.75 176.348H399.25V211.942H393.688Z" fill="black"/>
</svg>
