<?xml version="1.0" encoding="utf-8"?>
<!-- Generator: Adobe Illustrator 27.9.0, SVG Export Plug-In . SVG Version: 6.00 Build 0)  -->
<svg version="1.1" id="Layer_1" xmlns="http://www.w3.org/2000/svg" xmlns:xlink="http://www.w3.org/1999/xlink" x="0px" y="0px"
	 viewBox="0 0 86 86" style="enable-background:new 0 0 86 86;" xml:space="preserve">
<style type="text/css">
	.st0{fill:#FFFFFF;}
	.st1{fill:#BD71FF;}
	.st2{fill:none;}
	.st3{fill:#AE2EFF;}
</style>
			<path class="st2" d="M15.9,56.5c0.2-2-0.6-4-2.1-5.3L5.5,44c0.3,8.9,3.7,17,9.2,23.3L15.9,56.5z"/>
			<path class="st2" d="M56.5,69.6c-0.2,0-0.4,0-0.6,0c-1.8,0-3.5,0.8-4.7,2.1L44,80c8.9-0.3,17-3.7,23.3-9.2L56.5,69.6z"/>
			<path class="st2" d="M29,15.9c0.2,0,0.4,0,0.6,0c1.8,0,3.5-0.8,4.7-2.1l7.1-8.2c-8.9,0.3-17,3.7-23.3,9.2L29,15.9z"/>
			<path class="st2" d="M69.6,29c-0.2,2,0.6,4,2.1,5.3l8.2,7.1c-0.3-8.9-3.7-17-9.2-23.3L69.6,29z"/>
			<path class="st3" d="M41.9,5.1l1.9-2.2c0.8-0.9,0.2-2.3-1-2.3c0,0,0,0,0,0C31.6,0.5,21.4,4.9,13.8,12c-0.9,0.8-0.4,2.3,0.8,2.4
				l2.9,0.3c0.4,0,0.8-0.1,1.1-0.3C24.7,9.2,32.4,6,40.9,5.6C41.3,5.5,41.6,5.4,41.9,5.1z"/>
			<path class="st3" d="M43.6,80.4l-2,2.3c-0.8,0.9-0.2,2.3,1,2.3c0,0,0,0,0,0c11.2,0,21.4-4.4,28.9-11.5c0.9-0.8,0.4-2.3-0.8-2.4
				l-2.9-0.3c-0.4,0-0.8,0.1-1.1,0.3c-6.1,5.1-13.8,8.4-22.2,8.8C44.2,80,43.9,80.1,43.6,80.4z"/>
			<path class="st3" d="M80.4,41.9l2.3,2c0.9,0.8,2.3,0.2,2.3-1c0,0,0,0,0,0c0-11.2-4.4-21.4-11.5-28.9c-0.8-0.9-2.3-0.4-2.4,0.8
				l-0.3,2.9c0,0.4,0.1,0.8,0.3,1.1c5.1,6.1,8.4,13.8,8.8,22.2C80,41.2,80.1,41.6,80.4,41.9z"/>
			<path class="st3" d="M5.1,43.6l-2.2-1.9c-0.9-0.8-2.3-0.2-2.3,1c0,0,0,0,0,0c0,11.2,4.4,21.4,11.5,28.9c0.8,0.9,2.3,0.4,2.4-0.8
				l0.3-2.9c0-0.4-0.1-0.8-0.3-1.1C9.2,60.8,6,53.1,5.6,44.6C5.5,44.2,5.4,43.9,5.1,43.6z"/>
		<path class="st0" d="M84.3,57.1l-18.5-16c-3.7-3.2-5.7-8.1-5.2-13l2.5-24.3C63.4,1.6,61.6,0,59.7,0c-0.9,0-1.9,0.4-2.6,1.2
			l-16,18.5c-2.9,3.4-7.1,5.2-11.5,5.2c-0.5,0-1,0-1.6-0.1L3.8,22.3c-0.1,0-0.3,0-0.4,0c-3.1,0-4.7,3.9-2.2,6.1l18.5,16
			c3.7,3.2,5.7,8.1,5.2,13.1l-2.5,24.3c-0.2,2.3,1.6,3.8,3.5,3.8c0.9,0,1.9-0.4,2.6-1.2l16-18.5c2.9-3.4,7.1-5.3,11.5-5.3
			c0.5,0,1,0,1.6,0.1l24.3,2.5c0.1,0,0.3,0,0.4,0C85.2,63.2,86.7,59.2,84.3,57.1z M42.7,52.9c-5.6,0-10.2-4.6-10.2-10.2
			c0-5.6,4.6-10.2,10.2-10.2s10.2,4.6,10.2,10.2C52.9,48.4,48.4,52.9,42.7,52.9z"/>
</svg>
