<svg width="50" height="50" viewBox="0 0 50 50" fill="none" xmlns="http://www.w3.org/2000/svg">
<g id="Starknet-icon 1" clip-path="url(#clip0_53_4079)">
<g id="Clip path group">
<mask id="mask0_53_4079" style="mask-type:luminance" maskUnits="userSpaceOnUse" x="0" y="0" width="50" height="50">
<g id="clip0_11034_62885">
<path id="Vector" d="M50 0H0V50H50V0Z" fill="white"/>
</g>
</mask>
<g mask="url(#mask0_53_4079)">
<g id="Group">
<path id="Vector_2" fill-rule="evenodd" clip-rule="evenodd" d="M0 25.1569C0 38.8772 11.1926 49.9992 24.9996 49.9992C38.8066 49.9992 50 38.8772 50 25.1569C50 11.4366 38.8066 0.314453 24.9996 0.314453C11.1926 0.314453 0 11.4366 0 25.1569Z" fill="#0C0C4F"/>
<path id="Vector_3" fill-rule="evenodd" clip-rule="evenodd" d="M13.9726 19.303L14.5897 17.4084C14.7152 17.0231 15.0212 16.7232 15.4104 16.605L17.3263 16.0195C17.5915 15.939 17.5937 15.5672 17.3306 15.4824L15.4233 14.8692C15.0363 14.7446 14.7345 14.4404 14.6148 14.0537L14.0263 12.1498C13.9454 11.887 13.5712 11.8841 13.4859 12.1463L12.8688 14.0408C12.7433 14.4255 12.4373 14.7253 12.0481 14.8443L10.1322 15.4291C9.86698 15.5102 9.86409 15.8813 10.1279 15.9661L12.0352 16.5793C12.4222 16.704 12.724 17.0088 12.8437 17.3956L13.4322 19.2987C13.5131 19.5623 13.8873 19.5651 13.9726 19.303Z" fill="#FAFAFA"/>
<path id="Vector_4" fill-rule="evenodd" clip-rule="evenodd" d="M44.2564 18.2003C43.4666 17.3226 42.234 16.8285 41.0356 16.6258C39.8276 16.4312 38.5609 16.4493 37.3685 16.6598C34.9555 17.0654 32.7634 18.0582 30.8514 19.283C29.8585 19.8841 29.0118 20.5797 28.1346 21.288C27.7119 21.6463 27.3266 22.0278 26.9253 22.4038L25.8287 23.488C24.6371 24.7257 23.4627 25.853 22.3264 26.7873C21.1855 27.7174 20.1188 28.4238 19.0676 28.9171C18.017 29.4129 16.893 29.7045 15.4278 29.7512C13.9755 29.8021 12.2573 29.5417 10.4194 29.1117C8.57159 28.6837 6.63121 28.0736 4.46289 27.5487C5.21947 29.6344 6.35878 31.4775 7.82153 33.1624C9.30144 34.818 11.1494 36.3272 13.5233 37.3196C15.863 38.3341 18.8032 38.6979 21.5524 38.1485C24.3088 37.6215 26.7277 36.3539 28.683 34.8882C30.6433 33.4073 32.2292 31.7202 33.5662 29.9667C33.9352 29.4821 34.1305 29.2109 34.3976 28.8322L35.1359 27.7456C35.6488 27.0735 36.1159 26.3082 36.6235 25.6422C37.6191 24.2475 38.6007 22.8544 39.7412 21.5709C40.3153 20.92 40.9207 20.2973 41.6352 19.6989C41.9916 19.4068 42.3767 19.121 42.8033 18.8635C43.2362 18.5858 43.6935 18.3684 44.2564 18.2003Z" fill="url(#paint0_linear_53_4079)"/>
<path id="Vector_5" fill-rule="evenodd" clip-rule="evenodd" d="M44.2564 18.2015C43.408 16.0739 41.8305 14.2829 39.7131 12.9613C37.6087 11.6542 34.6859 10.9871 31.7893 11.5558C30.3586 11.8307 28.9723 12.3602 27.7558 13.0652C26.5448 13.7675 25.4596 14.6128 24.5201 15.5197C24.0511 15.9747 23.6254 16.4492 23.2025 16.9265L22.1064 18.3153L20.4134 20.5508C18.255 23.427 15.9308 26.7977 12.1167 27.7965C8.37226 28.777 6.74824 27.9087 4.46289 27.5499C4.88077 28.622 5.39837 29.6631 6.10007 30.5789C6.78871 31.5134 7.60213 32.3911 8.6134 33.1433C9.12444 33.5046 9.664 33.8612 10.2632 34.1637C10.8598 34.4559 11.5031 34.7131 12.1897 34.9068C13.5556 35.2788 15.0932 35.409 16.5821 35.209C18.0716 35.0115 19.4953 34.5423 20.7398 33.9194C21.9935 33.3024 23.0856 32.5508 24.0607 31.7577C25.9992 30.158 27.507 28.3905 28.7806 26.6038C29.4212 25.7105 30.0028 24.8004 30.5406 23.8901L31.1736 22.8062C31.3671 22.4894 31.5628 22.1706 31.7615 21.8737C32.5637 20.681 33.3482 19.7246 34.3011 19.0068C35.2406 18.2703 36.5492 17.7263 38.2976 17.5998C40.0387 17.4719 42.0488 17.7082 44.2564 18.2015Z" fill="#FAFAFA"/>
<path id="Vector_6" fill-rule="evenodd" clip-rule="evenodd" d="M34.8359 35.879C34.8359 37.4416 36.1116 38.7092 37.684 38.7092C39.2568 38.7092 40.5306 37.4416 40.5306 35.879C40.5306 34.3161 39.2568 33.0488 37.684 33.0488C36.1116 33.0488 34.8359 34.3161 34.8359 35.879Z" fill="url(#paint1_linear_53_4079)"/>
</g>
</g>
</g>
</g>
<defs>
<linearGradient id="paint0_linear_53_4079" x1="44.0438" y1="17.4537" x2="9.12433" y2="36.979" gradientUnits="userSpaceOnUse">
<stop stop-color="#EC796B"/>
<stop offset="1" stop-color="#E175B1"/>
</linearGradient>
<linearGradient id="paint1_linear_53_4079" x1="40.5287" y1="33.8935" x2="34.8329" y2="34.4997" gradientUnits="userSpaceOnUse">
<stop stop-color="#EC796B"/>
<stop offset="1" stop-color="#E175B1"/>
</linearGradient>
<clipPath id="clip0_53_4079">
<rect width="50" height="50" fill="white"/>
</clipPath>
</defs>
</svg>
