<svg width="70" height="67" viewBox="0 0 70 67" fill="none" xmlns="http://www.w3.org/2000/svg">
<path d="M15.409 3.69306V6.61246H15.4132L15.4124 9.74696H7.8093V9.75656H6.5383L2.3839 18.4914H15.4135V21.9723H15.4091L15.4135 51.4549C15.4135 55.5268 12.1126 58.8277 8.0408 58.8277H5.7346L0.806396 66.0772H43.4172L38.3539 58.8277H32.7795C28.7076 58.8277 25.4067 55.5268 25.4067 51.4549L25.4024 25.665C25.5071 21.7076 28.7304 18.5273 32.7046 18.4914H60.5481L55.6584 9.75656H34.6021V9.74696L25.3987 9.74686L25.3994 6.61246H25.4022V0.324463L15.409 3.69306Z" fill="white"/>
<path d="M20.882 1.85174V58.5496C20.9731 56.9642 22.0475 52.8554 25.3648 51.1027V32.8665L25.4703 32.8998V25.8309C25.4703 21.7591 28.7712 18.4582 32.843 18.4582H60.5812L57.9508 13.8656H30.9083C27.1286 13.8656 25.3648 16.556 25.3648 16.556L25.4435 0.306641L20.882 1.85174Z" fill="#DFDFDF"/>
<path d="M4.622 13.7927L2.3295 18.5083H15.4247V13.7927H4.622Z" fill="#DFDFDF"/>
<circle cx="54" cy="41" r="16" fill="white"/>
<mask id="mask0_2005_24" style="mask-type:luminance" maskUnits="userSpaceOnUse" x="39" y="26" width="30" height="30">
<path d="M69 26H39V56H69V26Z" fill="white"/>
</mask>
<g mask="url(#mask0_2005_24)">
<path fill-rule="evenodd" clip-rule="evenodd" d="M39 41.0942C39 49.3264 45.7156 55.9996 53.9998 55.9996C62.284 55.9996 69 49.3264 69 41.0942C69 32.862 62.284 26.1887 53.9998 26.1887C45.7156 26.1887 39 32.862 39 41.0942Z" fill="#0C0C4F"/>
<path fill-rule="evenodd" clip-rule="evenodd" d="M47.3836 37.5818L47.7538 36.445C47.8291 36.2138 48.0127 36.0339 48.2462 35.963L49.3958 35.6117C49.5549 35.5634 49.5562 35.3403 49.3984 35.2894L48.254 34.9215C48.0218 34.8467 47.8407 34.6642 47.7689 34.4322L47.4158 33.2898C47.3672 33.1322 47.1427 33.1304 47.0915 33.2877L46.7213 34.4244C46.646 34.6553 46.4624 34.8351 46.2289 34.9065L45.0793 35.2574C44.9202 35.3061 44.9184 35.5287 45.0767 35.5796L46.2211 35.9475C46.4533 36.0224 46.6344 36.2052 46.7062 36.4373L47.0593 37.5792C47.1079 37.7373 47.3324 37.739 47.3836 37.5818Z" fill="#FAFAFA"/>
<path fill-rule="evenodd" clip-rule="evenodd" d="M65.5538 36.9203C65.08 36.3937 64.3404 36.0972 63.6214 35.9756C62.8966 35.8589 62.1365 35.8697 61.4211 35.996C59.9733 36.2394 58.658 36.8351 57.5108 37.5699C56.9151 37.9306 56.4071 38.348 55.8808 38.7729C55.6271 38.9879 55.396 39.2168 55.1552 39.4424L54.4972 40.0929C53.7823 40.8356 53.0776 41.5119 52.3958 42.0725C51.7113 42.6306 51.0713 43.0544 50.4406 43.3504C49.8102 43.6479 49.1358 43.8228 48.2567 43.8509C47.3853 43.8814 46.3544 43.7252 45.2516 43.4672C44.143 43.2104 42.9787 42.8443 41.6777 42.5294C42.1317 43.7808 42.8153 44.8866 43.6929 45.8976C44.5809 46.8909 45.6896 47.7965 47.114 48.3919C48.5178 49.0006 50.2819 49.2189 51.9314 48.8892C53.5853 48.573 55.0366 47.8125 56.2098 46.9331C57.386 46.0445 58.3375 45.0323 59.1397 43.9802C59.3611 43.6894 59.4783 43.5267 59.6386 43.2995L60.0815 42.6475C60.3893 42.2442 60.6695 41.7851 60.9741 41.3855C61.5715 40.5486 62.1604 39.7128 62.8447 38.9427C63.1892 38.5521 63.5524 38.1785 63.9811 37.8195C64.195 37.6442 64.426 37.4727 64.682 37.3182C64.9417 37.1516 65.2161 37.0212 65.5538 36.9203Z" fill="url(#paint0_linear_2005_24)"/>
<path fill-rule="evenodd" clip-rule="evenodd" d="M65.5538 36.921C65.0448 35.6444 64.0983 34.5698 62.8279 33.7769C61.5652 32.9926 59.8115 32.5923 58.0736 32.9336C57.2152 33.0985 56.3834 33.4162 55.6535 33.8392C54.9269 34.2606 54.2758 34.7678 53.7121 35.3119C53.4307 35.5849 53.1752 35.8696 52.9215 36.156L52.2638 36.9893L51.248 38.3306C49.953 40.0563 48.5585 42.0787 46.27 42.678C44.0234 43.2663 43.0489 42.7453 41.6777 42.53C41.9285 43.1733 42.239 43.7979 42.66 44.3474C43.0732 44.9081 43.5613 45.4347 44.168 45.8861C44.4747 46.1028 44.7984 46.3168 45.1579 46.4983C45.5159 46.6736 45.9019 46.8279 46.3138 46.9442C47.1334 47.1674 48.0559 47.2455 48.9493 47.1255C49.843 47.007 50.6972 46.7255 51.4439 46.3517C52.1961 45.9815 52.8514 45.5306 53.4364 45.0547C54.5995 44.0949 55.5042 43.0344 56.2684 41.9624C56.6527 41.4264 57.0017 40.8803 57.3244 40.3341L57.7042 39.6838C57.8203 39.4937 57.9377 39.3024 58.0569 39.1243C58.5382 38.4087 59.0089 37.8348 59.5807 37.4042C60.1444 36.9623 60.9295 36.6359 61.9786 36.56C63.0232 36.4832 64.2293 36.625 65.5538 36.921Z" fill="#FAFAFA"/>
<path fill-rule="evenodd" clip-rule="evenodd" d="M59.9015 47.5275C59.9015 48.465 60.667 49.2256 61.6104 49.2256C62.5541 49.2256 63.3184 48.465 63.3184 47.5275C63.3184 46.5897 62.5541 45.8293 61.6104 45.8293C60.667 45.8293 59.9015 46.5897 59.9015 47.5275Z" fill="url(#paint1_linear_2005_24)"/>
</g>
<defs>
<linearGradient id="paint0_linear_2005_24" x1="65.4263" y1="36.4724" x2="44.4746" y2="48.1875" gradientUnits="userSpaceOnUse">
<stop stop-color="#EC796B"/>
<stop offset="1" stop-color="#E175B1"/>
</linearGradient>
<linearGradient id="paint1_linear_2005_24" x1="63.3172" y1="46.3362" x2="59.8997" y2="46.6999" gradientUnits="userSpaceOnUse">
<stop stop-color="#EC796B"/>
<stop offset="1" stop-color="#E175B1"/>
</linearGradient>
</defs>
</svg>
