<svg xmlns="http://www.w3.org/2000/svg" width="25" height="25" viewBox="0 0 25 25" fill="none">
<path d="M15.9224 10.5L11.9882 14.4342C11.9511 14.4712 11.8916 14.4734 11.852 14.439L9.92236 12.7672M5.26221 6.92264L11.9225 3.07734C12.5413 2.72007 13.3037 2.72007 13.9225 3.07734L20.5827 6.92264C21.2015 7.2799 21.5827 7.94016 21.5827 8.65469V16.3453C21.5827 17.0598 21.2015 17.7201 20.5827 18.0773L13.9225 21.9226C13.3037 22.2799 12.5413 22.2799 11.9225 21.9226L5.26221 18.0773C4.64341 17.7201 4.26221 17.0598 4.26221 16.3453V8.65469C4.26221 7.94016 4.64341 7.2799 5.26221 6.92264Z" stroke="#00FF1E" stroke-width="2" stroke-linecap="round"/>
</svg>