<svg width="40px" height="40px" viewBox="0 0 54 54" fill="none" xmlns="http://www.w3.org/2000/svg"><path d="M53.2833 27.0578C53.2833 32.5318 51.6107 37.6152 48.7486 41.8247C43.5233 41.2048 38.2316 40.8 32.8827 40.6195L32.8637 40.574L21.183 17.0595C20.0867 14.8525 17.835 13.4567 15.3706 13.4566L4.47768 13.4565C9.08536 5.84728 17.4425 0.761841 26.9874 0.761841C41.5102 0.761841 53.2833 12.5349 53.2833 27.0578Z" fill="#FFEAD2"></path><path fill-rule="evenodd" clip-rule="evenodd" d="M0.691406 27.0578C0.691406 32.4819 2.33368 37.5225 5.14813 41.7093C10.6773 41.0833 16.2799 40.698 21.9452 40.5642C21.5424 40.5129 21.188 40.2612 21.009 39.8891L10.8015 18.6705C9.58519 16.142 7.02753 14.5341 4.22166 14.5341H3.85945C1.83895 18.2576 0.691406 22.5237 0.691406 27.0578ZM6.78035 28.0753L7.23419 29.4781C7.29691 29.6721 7.57206 29.67 7.63162 29.4749L8.06437 28.0658C8.1524 27.7795 8.37431 27.5538 8.65894 27.4615L10.0616 27.0074C10.2555 26.9447 10.2534 26.6699 10.0584 26.6098L8.64945 26.1768C8.36324 26.0888 8.13816 25.8667 8.04592 25.582L7.59209 24.1792C7.52936 23.9851 7.25422 23.9872 7.19466 24.1818L6.76191 25.5915C6.67388 25.8778 6.45197 26.103 6.16734 26.1953L4.76473 26.6493C4.57128 26.7121 4.57286 26.9874 4.76789 27.047L6.17683 27.4804C6.46304 27.568 6.68811 27.79 6.78035 28.0753Z" fill="#FFEAD2"></path><path d="M5.53906 41.6654C10.9412 41.0652 16.4132 40.6948 21.9449 40.5642C21.5421 40.5128 21.1876 40.2611 21.0086 39.889L15.6939 28.8411C11.7297 32.6017 8.30268 36.9184 5.53906 41.6654Z" fill="#FF4F0A"></path><path d="M23.8355 22.3999C31.3257 17.4977 40.0316 14.2853 49.4059 13.3074C51.8649 17.3081 53.2831 22.0173 53.2831 27.0577C53.2831 32.5318 51.6105 37.6151 48.7484 41.8246C43.5231 41.2047 38.2313 40.7999 32.8824 40.6194L32.8634 40.5739L23.8355 22.3999Z" fill="#FF4F0A"></path><path opacity="0.65" d="M49.4062 13.3075C49.6882 13.7663 49.9565 14.2344 50.2106 14.7113C47.6093 15.4653 45.3968 17.2929 44.1867 19.8086L34.2628 40.4377C34.2233 40.5197 34.1754 40.5959 34.1202 40.6653C33.7081 40.6488 33.2957 40.6335 32.8828 40.6196L32.8639 40.574L28.4268 31.6417L31.64 23.758C33.1305 20.1008 35.8067 17.1704 39.1174 15.3373C42.4325 14.3625 45.8718 13.6762 49.4062 13.3075Z" fill="#121212"></path><path opacity="0.56" d="M34.0936 40.6642C33.6904 40.648 33.2869 40.6331 32.883 40.6194L32.864 40.5739L28.8125 32.4178C32.4435 30.4681 36.3084 28.8975 40.3543 27.7592L34.2817 40.3825C34.2318 40.4863 34.1681 40.5808 34.0936 40.6642Z" fill="#1B1B1B"></path></svg>